<?xml version="1.0" encoding="utf-8"?>
<!-- Generator: Adobe Illustrator 19.2.1, SVG Export Plug-In . SVG Version: 6.00 Build 0)  -->
<svg version="1.1" id="layer" xmlns="http://www.w3.org/2000/svg" xmlns:xlink="http://www.w3.org/1999/xlink" x="0px" y="0px"
	 viewBox="0 0 652 652" style="enable-background:new 0 0 652 652;" xml:space="preserve">
<style type="text/css">
	.st0{fill:#ED1C24;}
</style>
<g>
	<path class="st0" d="M427.7,177.4h-57.5l-10.5,50.5h57.5L427.7,177.4z"/>
	<path class="st0" d="M354.1,254.2l-44.8,211.3h57.5l44.9-211.3L354.1,254.2z"/>
	<path class="st0" d="M296.8,177.4l-61.4,288.1h56.7l61.4-288.1H296.8z"/>
	<path class="st0" d="M264.6,254.2h-37.2c1.7-8,2.5-11.2,3.7-15.4c2.3-10.6,12.4-17.7,23.2-16.2h15.9l9.8-45.3
		c0,0-18.5-0.9-22.1-0.9c-33.2,0-72.1,0.9-85.2,66.7l-2.4,11h-31l-8.8,41.6h31.6L126,465.5h56.5l36.1-169.7h37.2L264.6,254.2z"/>
	<path class="st0" d="M139.3,177.4H81.8l-10.5,50.5h57.5L139.3,177.4z"/>
	<path class="st0" d="M20.9,465.5h57.5l44.9-211.3H65.7L20.9,465.5z"/>
	<path class="st0" d="M491.5,426l14.4,39.5h69.4l-40.2-88.9L491.5,426z"/>
	<path class="st0" d="M553.5,254.2l-48.7,62.9l-23.6-62.9h-69.4l48.5,106l-93.4,105.3h67.4l186.6-211.3L553.5,254.2z"/>
</g>
</svg>
