<svg
   xmlns="http://www.w3.org/2000/svg"
   width="1000"
   height="1000"
   viewBox="0 0 264.58333 264.58334">
  <defs>
    <style>.cls-1{fill:url(#linear-gradient);}</style>
    <linearGradient
       id="linear-gradient"
       x1="135.79"
       y1="489.95"
       x2="266.13"
       y2="620.29"
       gradientUnits="userSpaceOnUse"
       gradientTransform="matrix(1.4354565,0,0,1.4354596,-156.23514,-664.61785)">
      <stop
         offset="0"
         stop-color="#fc0148" />
      <stop
         offset="1"
         stop-color="#fd7f30" />
    </linearGradient>
  </defs>
  <g>
    <path
       class="cls-1"
       d="M 132.29162,1.2480827e-5 A 132.29166,132.29166 0 1 0 264.58332,132.29168 132.23426,132.23426 0 0 0 132.29162,1.2480827e-5 Z m 0,14.957457519173 c 8.61276,-0.602895 16.07715,6.875834 16.07715,16.062755 A 16.077114,16.077114 0 1 1 132.29162,14.90005 Z M 36.848131,117.34858 c -9.18692,0 -16.665651,-7.47873 -16.077114,-16.07711 a 16.077114,16.077114 0 1 1 16.077114,16.07711 z M 72.50487,229.51514 A 16.435977,16.435977 0 0 1 56.427761,213.4524 16.077114,16.077114 0 1 1 72.50487,229.51514 Z m 93.51999,-43.79577 a 10.737215,10.737215 0 0 1 -8.06728,-3.5743 l -36.97734,-40.60903 h -4.82313 v 33.33131 a 10.923824,10.923824 0 0 1 -21.8333,0 V 86.314016 a 10.923824,10.923824 0 0 1 21.8333,0 v 33.331294 h 4.56475 l 33.01549,-39.015704 a 10.938179,10.938179 0 1 1 16.59389,14.11053 l -30.14459,35.584964 33.79065,37.09218 a 10.852052,10.852051 0 0 1 -8.06728,18.20161 z m 25.53678,43.79577 c -9.20127,0 -16.68,-7.46437 -16.0771,-16.06274 a 16.077114,16.077114 0 1 1 16.0771,16.06274 z m 52.25062,-128.84656 a 16.077114,16.077114 0 1 1 -16.07712,-16.062764 16.00534,16.00534 0 0 1 16.01969,16.005344 z" />
  </g>
</svg>
