<?xml version="1.0" encoding="UTF-8"?>
<svg version="1.1" xmlns="http://www.w3.org/2000/svg" width="512" height="512">
<path d="M0 0 C31.10760805 27.28712876 50.68879714 63.9390663 54.87792969 105.35864258 C55.18382409 110.86235732 55.26896815 116.34737902 55.25292969 121.85864258 C55.25205353 122.60020599 55.25117737 123.34176941 55.25027466 124.10580444 C55.16111108 147.10599595 50.97983178 170.58242414 39.62792969 190.90942383 C37.68716854 197.24722197 40.68875595 204.85206432 42.45996094 211.01879883 C42.71541183 211.92633408 42.97086273 212.83386932 43.23405457 213.76890564 C44.0474212 216.65455065 44.86861316 219.53789396 45.69042969 222.42114258 C46.23069953 224.32918827 46.77041769 226.23739027 47.30957031 228.14575195 C47.57317352 229.07866058 47.83677673 230.01156921 48.10836792 230.9727478 C49.13287005 234.60294115 50.1546674 238.23389031 51.17486572 241.86529541 C51.62619546 243.46589191 52.08033889 245.0656992 52.5380249 246.66448975 C53.12181758 248.70485582 53.69461792 250.74799065 54.26464844 252.79223633 C54.73777466 254.46177368 54.73777466 254.46177368 55.22045898 256.16503906 C56.49828655 262.37196904 56.37876063 266.99070179 52.87792969 272.35864258 C49.19100298 276.09593713 46.01337427 278.2274377 40.66333008 278.55615234 C36.61303313 278.34482115 33.12793181 277.46213578 29.31152344 276.19848633 C28.60345047 275.97292557 27.8953775 275.74736481 27.16584778 275.51496887 C25.65757953 275.03300001 24.15078153 274.54640921 22.64538574 274.05554199 C20.29529738 273.28958088 17.94130345 272.53691488 15.5859375 271.78735352 C8.68360306 269.58527542 1.79693693 267.34089471 -5.07128906 265.03442383 C-6.06894287 264.70385986 -7.06659668 264.3732959 -8.09448242 264.03271484 C-9.88764657 263.43614929 -11.6766446 262.82684045 -13.46020508 262.20214844 C-19.94348086 260.04678126 -24.33638609 260.08718105 -30.70800781 262.99536133 C-31.97436522 263.67275409 -33.23725472 264.35665964 -34.49707031 265.04614258 C-69.13721889 283.07489421 -112.60120067 286.71058731 -149.92382812 275.08520508 C-173.51305091 267.28850061 -193.0083429 255.91613768 -212.08300781 240.12426758 C-212.66614746 239.64248047 -213.24928711 239.16069336 -213.85009766 238.66430664 C-215.12207031 237.35864258 -215.12207031 237.35864258 -215.12207031 235.35864258 C-216.44207031 234.69864258 -217.76207031 234.03864258 -219.12207031 233.35864258 C-219.12207031 232.69864258 -219.12207031 232.03864258 -219.12207031 231.35864258 C-220.11207031 231.02864258 -221.10207031 230.69864258 -222.12207031 230.35864258 C-225.38817591 226.91887901 -228.23071428 223.11517272 -231.12207031 219.35864258 C-231.5290918 218.8357666 -231.93611328 218.31289063 -232.35546875 217.77416992 C-258.05103608 184.4639655 -268.4116407 141.53479059 -263.24853516 99.95800781 C-257.23058601 57.40697047 -235.01338033 18.98159015 -200.69238281 -7.04370117 C-195.3915854 -10.95987646 -189.83663704 -14.36527602 -184.12207031 -17.64135742 C-183.03152344 -18.29749023 -181.94097656 -18.95362305 -180.81738281 -19.62963867 C-124.07063935 -52.73324418 -48.79600354 -41.85557257 0 0 Z M-208.73144531 28.18676758 C-221.65225055 43.19416249 -230.99191446 59.71015502 -237.43457031 78.42114258 C-237.66499023 79.07961182 -237.89541016 79.73808105 -238.1328125 80.41650391 C-242.36931478 93.41062157 -243.68122607 106.46349866 -243.55957031 120.04614258 C-243.55619659 120.78398987 -243.55282288 121.52183716 -243.54934692 122.28204346 C-243.46788767 134.6435264 -242.52011851 146.42864533 -239.12207031 158.35864258 C-238.89132813 159.17896973 -238.66058594 159.99929688 -238.42285156 160.84448242 C-232.76868319 180.18906773 -223.09229048 197.03402264 -210.12207031 212.35864258 C-209.39890625 213.30868164 -208.67574219 214.2587207 -207.93066406 215.23754883 C-207.33382812 215.93750977 -206.73699219 216.6374707 -206.12207031 217.35864258 C-205.46207031 217.35864258 -204.80207031 217.35864258 -204.12207031 217.35864258 C-204.12207031 218.01864258 -204.12207031 218.67864258 -204.12207031 219.35864258 C-201.69768908 221.94113563 -198.85443165 224.11176689 -196.12207031 226.35864258 C-195.35805908 226.98899414 -195.35805908 226.98899414 -194.57861328 227.63208008 C-178.83283052 240.54595465 -162.44212374 249.6712091 -142.99707031 255.67114258 C-142.22290771 255.91364746 -141.44874512 256.15615234 -140.65112305 256.40600586 C-106.96112884 266.31379798 -69.20143286 260.66715773 -38.49707031 244.48364258 C-37.79936523 244.09023682 -37.10166016 243.69683105 -36.3828125 243.29150391 C-28.82278392 239.18823446 -21.64871663 238.45202797 -13.39819336 240.8972168 C-12.60582275 241.1526123 -11.81345215 241.40800781 -10.99707031 241.67114258 C-10.13831299 241.93169434 -9.27955566 242.19224609 -8.39477539 242.46069336 C-5.29752209 243.40714326 -2.21036731 244.38336766 0.87792969 245.35864258 C2.96581596 246.00820577 5.05452811 246.65506736 7.14331055 247.30174255 C15.73010739 249.96027325 24.30658757 252.6507188 32.87792969 255.35864258 C30.8620837 246.32390758 28.66820461 237.37318216 26.08105469 228.48364258 C25.84044312 227.65405029 25.59983154 226.82445801 25.35192871 225.96972656 C24.36182953 222.56622984 23.3672183 219.16421218 22.35791016 215.76635742 C21.60899566 213.23763591 20.87527737 210.70488388 20.14355469 208.17114258 C19.80145966 207.04119873 19.80145966 207.04119873 19.45245361 205.88842773 C17.35377442 198.5466187 16.76957033 191.78199209 19.88964844 184.64379883 C20.52870117 183.13354126 20.52870117 183.13354126 21.18066406 181.59277344 C21.63763672 180.54613525 22.09460938 179.49949707 22.56542969 178.42114258 C37.65440585 142.23996363 39.46282631 103.81701362 24.43603516 67.07568359 C9.68171479 32.68065691 -18.70864745 5.54966008 -53.12207031 -8.64135742 C-58.05039626 -10.6074449 -62.99931729 -12.26823583 -68.12207031 -13.64135742 C-68.84716797 -13.83745605 -69.57226562 -14.03355469 -70.31933594 -14.2355957 C-120.83790242 -27.24827616 -173.7690933 -9.70656006 -208.73144531 28.18676758 Z " fill="#000000" transform="translate(360.1220703125,134.641357421875)"/>
</svg>
